<mxfile host="app.diagrams.net" modified="2023-02-13T06:54:02.154Z" agent="5.0 (Windows NT 6.1; Win64; x64) AppleWebKit/537.36 (KHTML, like Gecko) Chrome/106.0.0.0 Safari/537.36" etag="Prr3dgfL1nxNoXEhEw8p" version="20.8.19" type="github">
  <diagram name="Spark  SQL执行流程" id="dEqnPz7Te2CZXSZK34e1">
    <mxGraphModel dx="1058" dy="492" grid="1" gridSize="10" guides="1" tooltips="1" connect="1" arrows="1" fold="1" page="1" pageScale="1" pageWidth="827" pageHeight="1169" math="0" shadow="0">
      <root>
        <mxCell id="0" />
        <mxCell id="1" parent="0" />
      </root>
    </mxGraphModel>
  </diagram>
</mxfile>
